<svg width="500" height="250" viewBox="0 0 500 250" fill="none" xmlns="http://www.w3.org/2000/svg">
<path d="M205.1 146V103.4H219.86C224.42 103.4 228.22 104.36 231.26 106.28C234.34 108.16 236.64 110.72 238.16 113.96C239.68 117.16 240.44 120.72 240.44 124.64C240.44 128.96 239.6 132.72 237.92 135.92C236.24 139.12 233.86 141.6 230.78 143.36C227.7 145.12 224.06 146 219.86 146H205.1ZM234.98 124.64C234.98 121.44 234.38 118.6 233.18 116.12C232.02 113.64 230.32 111.7 228.08 110.3C225.84 108.9 223.1 108.2 219.86 108.2H210.5V141.2H219.86C223.14 141.2 225.9 140.48 228.14 139.04C230.38 137.56 232.08 135.58 233.24 133.1C234.4 130.58 234.98 127.76 234.98 124.64ZM276.969 141.2V146H248.049V103.4H276.429V108.2H253.449V122H273.429V126.5H253.449V141.2H276.969ZM313.297 141.2V146H284.377V103.4H312.757V108.2H289.777V122H309.757V126.5H289.777V141.2H313.297ZM320.705 146V103.4H338.465C340.345 103.4 342.065 103.8 343.625 104.6C345.185 105.36 346.545 106.4 347.705 107.72C348.865 109 349.765 110.46 350.405 112.1C351.045 113.7 351.365 115.34 351.365 117.02C351.365 119.34 350.845 121.56 349.805 123.68C348.765 125.76 347.305 127.46 345.425 128.78C343.545 130.06 341.345 130.7 338.825 130.7H326.105V146H320.705ZM326.105 125.9H338.525C340.005 125.9 341.285 125.5 342.365 124.7C343.485 123.9 344.345 122.82 344.945 121.46C345.585 120.1 345.905 118.62 345.905 117.02C345.905 115.34 345.545 113.84 344.825 112.52C344.105 111.16 343.165 110.1 342.005 109.34C340.845 108.58 339.565 108.2 338.165 108.2H326.105V125.9ZM387.008 141.2V146H358.088V103.4H386.468V108.2H363.488V122H383.468V126.5H363.488V141.2H387.008ZM399.816 113.36V146H394.416V103.4H398.976L425.016 136.7V103.46H430.416V146H425.496L399.816 113.36ZM440.588 146V103.4H455.348C459.908 103.4 463.708 104.36 466.748 106.28C469.828 108.16 472.128 110.72 473.648 113.96C475.168 117.16 475.928 120.72 475.928 124.64C475.928 128.96 475.088 132.72 473.408 135.92C471.728 139.12 469.348 141.6 466.268 143.36C463.188 145.12 459.548 146 455.348 146H440.588ZM470.468 124.64C470.468 121.44 469.868 118.6 468.668 116.12C467.508 113.64 465.808 111.7 463.568 110.3C461.328 108.9 458.588 108.2 455.348 108.2H445.988V141.2H455.348C458.628 141.2 461.388 140.48 463.628 139.04C465.868 137.56 467.568 135.58 468.728 133.1C469.888 130.58 470.468 127.76 470.468 124.64Z" fill="#262626"/>
<path d="M80.4945 195.318C68.2957 192.628 58.5287 182.697 52.8493 168.095C47.1791 153.517 45.7524 134.613 50.1028 114.886C54.4532 95.1593 63.6984 78.609 74.9743 67.768C86.2684 56.9094 99.3066 52.0071 111.505 54.6973C123.704 57.3875 133.471 67.319 139.151 81.9206C144.821 96.4988 146.248 115.402 141.897 135.13C137.547 154.857 128.302 171.407 117.026 182.248C105.732 193.106 92.6934 198.009 80.4945 195.318Z" stroke="#262626" stroke-width="6"/>
<path fill-rule="evenodd" clip-rule="evenodd" d="M59.5883 87.7168C59.7334 87.6586 59.8789 87.6006 60.0247 87.543C61.7892 84.5995 63.6903 81.8302 65.7055 79.2546C65.2331 79.3938 64.7633 79.5362 64.2961 79.6817C62.6269 82.2078 61.0521 84.8908 59.5883 87.7168ZM138.632 83.8657C138.453 83.783 138.273 83.7007 138.092 83.619C139.167 86.1812 140.091 88.8839 140.855 91.7047C140.959 91.7617 141.062 91.819 141.165 91.8764C140.446 89.0922 139.599 86.4165 138.632 83.8657ZM150.678 98.3377C150.188 95.3103 149.565 92.3621 148.815 89.508C162.515 98.5674 171 111.127 171 125.008C171 141.581 158.906 156.27 140.28 165.368C141.734 162.461 143.075 159.429 144.291 156.287C144.769 155.986 145.24 155.681 145.705 155.371C158.204 147.038 165 136.185 165 125.008C165 115.417 159.996 106.064 150.678 98.3377ZM142.304 96.9359C142.213 96.8787 142.121 96.8217 142.029 96.7648C142.536 99.3722 142.916 102.062 143.16 104.817C143.273 104.904 143.385 104.991 143.496 105.078C143.214 102.291 142.815 99.5728 142.304 96.9359ZM151.986 114.476C151.971 110.953 151.785 107.492 151.439 104.114C157.503 110.195 161 117.35 161 125.008C161 134.579 155.538 143.365 146.427 150.249C147.565 146.709 148.549 143.049 149.36 139.285C153.116 134.726 155 129.836 155 125.008C155 121.479 153.994 117.917 151.986 114.476ZM138.655 148.282C137.697 148.867 136.702 149.434 135.675 149.981C134.398 152.958 132.991 155.814 131.468 158.533C132.828 157.988 134.153 157.411 135.439 156.806C136.616 154.07 137.692 151.226 138.655 148.282ZM132.986 162.066C131.444 162.699 129.859 163.294 128.234 163.85C126.338 166.722 124.308 169.406 122.168 171.88C124.291 171.353 126.369 170.764 128.396 170.116C130.026 167.58 131.561 164.892 132.986 162.066ZM41.3298 151.684C41.7949 154.691 42.391 157.62 43.1117 160.459C29.4543 151.404 21 138.864 21 125.008C21 108.258 33.3541 93.4322 52.3189 84.3586C50.8315 87.2559 49.4566 90.2802 48.207 93.4184C47.5572 93.8196 46.9198 94.2285 46.2952 94.6449C33.7956 102.978 27 113.831 27 125.008C27 134.601 32.0067 143.957 41.3298 151.684ZM40.1253 135.729C40.1255 139.203 40.2904 142.617 40.612 145.952C34.5163 139.861 31 132.687 31 125.008C31 115.284 36.6381 106.371 46.0122 99.4384C44.8474 102.946 43.8358 106.575 42.9931 110.309C39.0019 114.987 37 120.03 37 125.008C37 128.601 38.0434 132.229 40.1253 135.729ZM96 165.008C81.7904 165.008 68.6457 162.202 57.9492 157.441C57.1567 155.019 56.5 152.465 55.9901 149.801C66.4319 155.441 80.4207 159.008 96 159.008C106.382 159.008 116.057 157.424 124.447 154.698C122.933 157.397 121.301 159.935 119.574 162.296C112.266 164.047 104.315 165.008 96 165.008ZM96 91.0079C84.2118 91.0079 73.3342 93.05 64.2148 96.4873C65.6187 93.7289 67.1434 91.1207 68.7671 88.6772C77.0504 86.3219 86.2758 85.0079 96 85.0079C109.574 85.0079 122.176 87.5684 132.601 91.9473C133.322 94.3078 133.916 96.7861 134.375 99.3634C124.129 94.2182 110.78 91.0079 96 91.0079ZM96 81.0079C87.6769 81.0079 79.7354 81.9605 72.3991 83.6875C74.6079 80.9175 76.9492 78.4252 79.3797 76.2399C84.7257 75.4335 90.2883 75.0079 96 75.0079C107.018 75.0079 117.482 76.5919 126.905 79.4369C128.395 81.7331 129.73 84.2984 130.884 87.1208C120.702 83.2616 108.802 81.0079 96 81.0079ZM110.146 172.661C109.464 173.254 108.778 173.821 108.09 174.362C104.154 174.787 100.116 175.008 96 175.008C84.6727 175.008 73.9319 173.334 64.3039 170.337C62.6326 167.999 61.1339 165.348 59.8384 162.399C70.2977 166.56 82.6587 169.008 96 169.008C102.854 169.008 109.448 168.362 115.66 167.17C113.886 169.177 112.041 171.012 110.146 172.661Z" fill="#262626"/>
<path d="M82.6481 185.553C73.2583 183.482 65.6591 175.31 61.3149 162.815C56.9895 150.374 56.1026 134.115 59.8682 117.04C63.6337 99.9646 71.2769 85.5867 80.4339 76.1189C89.6305 66.6101 99.9622 62.392 109.352 64.4627C118.742 66.5334 126.341 74.7058 130.685 87.2007C135.01 99.6418 135.897 115.901 132.132 132.976C128.366 150.051 120.723 164.429 111.566 173.897C102.37 183.406 92.0378 187.624 82.6481 185.553Z" stroke="#262626" stroke-width="6"/>
<circle cx="96" cy="125.008" r="22" stroke="#262626" stroke-width="6"/>
</svg>
