<svg width="150" height="170" viewBox="0 0 150 170" fill="none" xmlns="http://www.w3.org/2000/svg">
<path d="M59.4945 155.311C47.2957 152.62 37.5287 142.689 31.8493 128.087C26.1791 113.509 24.7524 94.6054 29.1028 74.8784C33.4532 55.1514 42.6984 38.6011 53.9743 27.7601C65.2684 16.9015 78.3066 11.9992 90.5055 14.6894C102.704 17.3796 112.471 27.3111 118.151 41.9128C123.821 56.4909 125.248 75.3946 120.897 95.1216C116.547 114.849 107.302 131.399 96.0257 142.24C84.7316 153.098 71.6934 158.001 59.4945 155.311Z" stroke="#262626" stroke-width="6"/>
<path fill-rule="evenodd" clip-rule="evenodd" d="M38.5883 47.709C38.7334 47.6507 38.8789 47.5927 39.0247 47.5351C40.7892 44.5917 42.6903 41.8223 44.7055 39.2467C44.2331 39.3859 43.7633 39.5283 43.2961 39.6738C41.6269 42.1999 40.0521 44.883 38.5883 47.709ZM117.632 43.8578C117.453 43.7751 117.273 43.6928 117.092 43.6111C118.167 46.1733 119.091 48.876 119.855 51.6968C119.959 51.7538 120.062 51.8111 120.165 51.8685C119.446 49.0843 118.599 46.4086 117.632 43.8578ZM129.678 58.3298C129.188 55.3024 128.565 52.3543 127.815 49.5001C141.515 58.5595 150 71.1192 150 85C150 101.573 137.906 116.262 119.28 125.36C120.734 122.453 122.075 119.421 123.291 116.279C123.769 115.978 124.24 115.673 124.705 115.363C137.204 107.03 144 96.1768 144 85C144 75.409 138.996 66.0563 129.678 58.3298ZM121.304 56.928C121.213 56.8708 121.121 56.8138 121.029 56.7569C121.536 59.3643 121.916 62.0537 122.16 64.8094C122.273 64.8959 122.385 64.9827 122.496 65.0698C122.214 62.2829 121.815 59.5649 121.304 56.928ZM130.986 74.4682C130.971 70.9446 130.785 67.4845 130.439 64.1066C136.503 70.1874 140 77.3424 140 85C140 94.5709 134.538 103.357 125.427 110.241C126.565 106.701 127.549 103.041 128.36 99.2776C132.116 94.7184 134 89.8285 134 85C134 81.4712 132.994 77.9096 130.986 74.4682ZM117.655 108.274C116.697 108.859 115.702 109.426 114.675 109.973C113.398 112.951 111.991 115.806 110.468 118.526C111.828 117.98 113.153 117.403 114.439 116.798C115.616 114.063 116.692 111.218 117.655 108.274ZM111.986 122.058C110.444 122.691 108.859 123.286 107.234 123.842C105.338 126.714 103.308 129.398 101.168 131.872C103.291 131.345 105.369 130.756 107.396 130.108C109.026 127.572 110.561 124.884 111.986 122.058ZM20.3298 111.676C20.7949 114.683 21.391 117.612 22.1117 120.452C8.45435 111.396 0 98.8561 0 85C0 68.2503 12.3541 53.4243 31.3189 44.3507C29.8315 47.248 28.4566 50.2724 27.207 53.4105C26.5572 53.8117 25.9198 54.2206 25.2952 54.637C12.7956 62.97 6 73.8232 6 85C6 94.5936 11.0067 103.949 20.3298 111.676ZM19.1253 95.721C19.1255 99.1955 19.2904 102.609 19.612 105.944C13.5163 99.8526 10 92.679 10 85C10 75.2763 15.6381 66.363 25.0122 59.4305C23.8474 62.9382 22.8358 66.567 21.9931 70.3007C18.0019 74.9793 16 80.0223 16 85C16 88.5935 17.0434 92.2211 19.1253 95.721ZM75 125C60.7904 125 47.6457 122.194 36.9492 117.433C36.1567 115.011 35.5 112.457 34.9901 109.793C45.4319 115.433 59.4207 119 75 119C85.3817 119 95.0571 117.416 103.447 114.69C101.933 117.389 100.301 119.927 98.5744 122.288C91.2657 124.039 83.3152 125 75 125ZM75 51C63.2118 51 52.3342 53.0421 43.2148 56.4794C44.6187 53.721 46.1434 51.1128 47.7671 48.6693C56.0504 46.3141 65.2758 45 75 45C88.574 45 101.176 47.5605 111.601 51.9394C112.322 54.2999 112.916 56.7782 113.375 59.3555C103.129 54.2103 89.78 51 75 51ZM75 41C66.6769 41 58.7354 41.9526 51.3991 43.6796C53.6079 40.9096 55.9492 38.4174 58.3797 36.232C63.7257 35.4257 69.2883 35 75 35C86.0182 35 96.4815 36.584 105.905 39.429C107.395 41.7252 108.73 44.2905 109.884 47.1129C99.7017 43.2537 87.8022 41 75 41ZM89.1456 132.653C88.4635 133.246 87.7781 133.813 87.09 134.354C83.1542 134.779 79.1158 135 75 135C63.6727 135 52.9319 133.326 43.3039 130.329C41.6326 127.991 40.1339 125.34 38.8384 122.391C49.2977 126.553 61.6587 129 75 129C81.8536 129 88.4485 128.354 94.6597 127.162C92.8862 129.169 91.0415 131.004 89.1456 132.653Z" fill="#262626"/>
<path d="M61.6481 145.545C52.2583 143.475 44.6591 135.302 40.3149 122.807C35.9895 110.366 35.1026 94.1071 38.8682 77.0319C42.6337 59.9567 50.2769 45.5788 59.4339 36.111C68.6305 26.6022 78.9622 22.3841 88.3519 24.4548C97.7417 26.5255 105.341 34.6979 109.685 47.1928C114.01 59.6339 114.897 75.8929 111.132 92.9681C107.366 110.043 99.7231 124.421 90.5661 133.889C81.3695 143.398 71.0378 147.616 61.6481 145.545Z" stroke="#262626" stroke-width="6"/>
<circle cx="75" cy="85" r="22" stroke="#262626" stroke-width="6"/>
</svg>
