<svg width="1413" height="400" viewBox="0 0 1413 400" fill="none" xmlns="http://www.w3.org/2000/svg">
<path d="M473.529 159.156V253H450.971L417.777 194.605V253H395.154V159.156H417.777L450.971 217.551V159.156H473.529ZM552.42 235.598V253H502.404V235.598H552.42ZM510.461 159.156V253H487.838V159.156H510.461ZM545.975 196.41V213.232H502.404V196.41H545.975ZM552.613 159.156V176.623H502.404V159.156H552.613ZM641.107 204.209V208.012C641.107 215.188 640.098 221.633 638.078 227.348C636.102 233.02 633.287 237.875 629.635 241.914C625.982 245.91 621.664 248.982 616.68 251.131C611.695 253.236 606.195 254.289 600.18 254.289C594.121 254.289 588.578 253.236 583.551 251.131C578.566 248.982 574.227 245.91 570.531 241.914C566.879 237.875 564.043 233.02 562.023 227.348C560.047 221.633 559.059 215.188 559.059 208.012V204.209C559.059 197.033 560.047 190.588 562.023 184.873C564.043 179.158 566.857 174.303 570.467 170.307C574.119 166.268 578.438 163.195 583.422 161.09C588.449 158.941 593.992 157.867 600.051 157.867C606.066 157.867 611.566 158.941 616.551 161.09C621.578 163.195 625.918 166.268 629.57 170.307C633.223 174.303 636.059 179.158 638.078 184.873C640.098 190.588 641.107 197.033 641.107 204.209ZM618.162 208.012V204.08C618.162 199.439 617.754 195.357 616.938 191.834C616.164 188.268 615.004 185.281 613.457 182.875C611.91 180.469 609.998 178.664 607.721 177.461C605.486 176.215 602.93 175.592 600.051 175.592C597.043 175.592 594.422 176.215 592.188 177.461C589.953 178.664 588.084 180.469 586.58 182.875C585.076 185.281 583.938 188.268 583.164 191.834C582.434 195.357 582.068 199.439 582.068 204.08V208.012C582.068 212.609 582.434 216.691 583.164 220.258C583.938 223.781 585.076 226.768 586.58 229.217C588.127 231.666 590.018 233.514 592.252 234.76C594.529 236.006 597.172 236.629 600.18 236.629C603.059 236.629 605.615 236.006 607.85 234.76C610.084 233.514 611.953 231.666 613.457 229.217C615.004 226.768 616.164 223.781 616.938 220.258C617.754 216.691 618.162 212.609 618.162 208.012ZM690.285 221.16H666.953V203.693H690.285C693.465 203.693 696.043 203.156 698.02 202.082C699.996 201.008 701.436 199.525 702.338 197.635C703.283 195.701 703.756 193.531 703.756 191.125C703.756 188.547 703.283 186.162 702.338 183.971C701.436 181.779 699.996 180.018 698.02 178.686C696.043 177.311 693.465 176.623 690.285 176.623H675.461V253H652.838V159.156H690.285C697.805 159.156 704.271 160.531 709.686 163.281C715.143 166.031 719.332 169.812 722.254 174.625C725.176 179.395 726.637 184.852 726.637 190.996C726.637 197.055 725.176 202.34 722.254 206.852C719.332 211.363 715.143 214.887 709.686 217.422C704.271 219.914 697.805 221.16 690.285 221.16ZM767.113 178.879L744.232 253H719.934L754.416 159.156H769.82L767.113 178.879ZM786.062 253L763.117 178.879L760.152 159.156H775.75L810.426 253H786.062ZM785.16 218.002V235.469H737.014V218.002H785.16ZM855.027 159.156V253H832.404V159.156H855.027ZM883.258 159.156V176.623H804.818V159.156H883.258ZM956.09 196.41V213.812H907.943V196.41H956.09ZM915.484 159.156V253H892.861V159.156H915.484ZM971.301 159.156V253H948.742V159.156H971.301ZM1007.33 244.492L1026.02 159.156H1037.17L1043.23 166.439L1023.31 253H1011L1007.33 244.492ZM1002.37 159.156L1018.16 245.137L1014.1 253H999.854L979.938 159.156H1002.37ZM1053.48 244.686L1069.14 159.156H1091.51L1071.59 253H1057.41L1053.48 244.686ZM1045.23 159.156L1064.37 245.008L1060.5 253H1048.19L1027.83 166.311L1034.14 159.156H1045.23ZM1137.33 178.879L1114.45 253H1090.15L1124.63 159.156H1140.04L1137.33 178.879ZM1156.28 253L1133.34 178.879L1130.37 159.156H1145.97L1180.64 253H1156.28ZM1155.38 218.002V235.469H1107.23V218.002H1155.38ZM1194.89 159.156L1212.16 199.891L1229.5 159.156H1253.86L1223.7 219.291V253H1200.69V219.291L1170.46 159.156H1194.89ZM1308.07 228.057C1308.07 226.596 1307.85 225.285 1307.42 224.125C1306.99 222.922 1306.2 221.805 1305.04 220.773C1303.88 219.742 1302.2 218.711 1300.01 217.68C1297.86 216.605 1295.03 215.488 1291.5 214.328C1287.38 212.953 1283.4 211.406 1279.58 209.688C1275.76 207.926 1272.34 205.885 1269.33 203.564C1266.32 201.201 1263.94 198.451 1262.18 195.314C1260.42 192.135 1259.54 188.439 1259.54 184.229C1259.54 180.189 1260.44 176.559 1262.24 173.336C1264.05 170.07 1266.56 167.299 1269.78 165.021C1273.05 162.701 1276.87 160.939 1281.26 159.736C1285.64 158.49 1290.43 157.867 1295.63 157.867C1302.5 157.867 1308.56 159.07 1313.8 161.477C1319.09 163.84 1323.21 167.213 1326.18 171.596C1329.19 175.936 1330.69 181.07 1330.69 187H1308.2C1308.2 184.637 1307.7 182.553 1306.71 180.748C1305.77 178.943 1304.33 177.525 1302.4 176.494C1300.46 175.463 1298.04 174.947 1295.11 174.947C1292.28 174.947 1289.89 175.377 1287.96 176.236C1286.03 177.096 1284.56 178.256 1283.58 179.717C1282.59 181.135 1282.09 182.703 1282.09 184.422C1282.09 185.84 1282.48 187.129 1283.25 188.289C1284.07 189.406 1285.21 190.459 1286.67 191.447C1288.17 192.436 1289.98 193.381 1292.08 194.283C1294.23 195.186 1296.64 196.066 1299.3 196.926C1304.29 198.516 1308.71 200.299 1312.58 202.275C1316.49 204.209 1319.78 206.422 1322.44 208.914C1325.15 211.363 1327.19 214.156 1328.56 217.293C1329.98 220.43 1330.69 223.975 1330.69 227.928C1330.69 232.139 1329.88 235.877 1328.24 239.143C1326.61 242.408 1324.27 245.18 1321.22 247.457C1318.17 249.691 1314.51 251.389 1310.26 252.549C1306.01 253.709 1301.26 254.289 1296.02 254.289C1291.2 254.289 1286.46 253.688 1281.77 252.484C1277.13 251.238 1272.92 249.348 1269.14 246.812C1265.36 244.234 1262.33 240.947 1260.05 236.951C1257.82 232.912 1256.7 228.121 1256.7 222.578H1279.39C1279.39 225.328 1279.75 227.648 1280.48 229.539C1281.21 231.43 1282.29 232.955 1283.71 234.115C1285.12 235.232 1286.86 236.049 1288.93 236.564C1290.99 237.037 1293.35 237.273 1296.02 237.273C1298.89 237.273 1301.21 236.865 1302.98 236.049C1304.74 235.189 1306.03 234.072 1306.84 232.697C1307.66 231.279 1308.07 229.732 1308.07 228.057Z" fill="white"/>
<path fill-rule="evenodd" clip-rule="evenodd" d="M120.279 100.372C132.866 100.372 143.07 90.1683 143.07 77.5814C143.07 74.0234 142.254 70.6559 140.8 67.6555C147.661 65.2136 154.773 63.2804 162.096 61.8932C185.194 57.5167 219.306 60.9699 239.781 69.7572L246.026 72.4367L229.341 76.8132C173.878 91.3589 131.529 121.622 136.873 142.894C137.436 145.134 145.229 153.67 154.965 162.712C172.575 179.062 176.56 184.338 176.56 191.302C176.56 203.568 157.797 214.331 118.298 224.719C95.6976 230.664 84.6222 235.109 69.3772 244.357C62.8397 248.321 56.8969 250.971 56.1679 250.243C55.4389 249.515 53.2987 243.33 51.4099 236.499C48.5454 226.141 47.9787 220.061 48.0006 199.902C48.024 178.087 48.4424 174.364 52.2778 161.766C61.2272 132.379 78.3476 107.538 100.961 89.6801C104.992 96.1025 112.137 100.372 120.279 100.372ZM184.365 116.616C184.365 108.529 204.416 96.601 238.401 84.4713C247.746 81.1367 255.968 78.3713 256.672 78.3277C257.376 78.2824 261.239 80.4847 265.257 83.2189C312.686 115.501 336.042 171.1 325.505 226.635C314.333 285.517 264.917 332.138 205.864 339.509C197.776 340.519 196.997 340.306 191.649 335.614C180.185 325.556 172.22 301.997 173.98 283.346C176.64 255.161 192.831 237.889 227.368 226.392C244.763 220.603 257.218 213.37 261.973 206.3C272.769 190.251 258.362 165.954 229.485 151.501C199.109 136.3 184.365 124.9 184.365 116.616Z" fill="white"/>
</svg>
