<svg width="250" height="250" viewBox="0 0 250 250" fill="none" xmlns="http://www.w3.org/2000/svg">
<rect width="250" height="250" fill="#111111"/>
<path fill-rule="evenodd" clip-rule="evenodd" d="M72.5 48C82.165 48 90 40.165 90 30.5C90 27.768 89.374 25.1822 88.2575 22.8783C93.5254 21.0033 98.9864 19.5189 104.609 18.4537C122.345 15.0932 148.538 17.7447 164.261 24.4921L169.055 26.5496L156.244 29.9101C113.657 41.0791 81.1386 64.3165 85.2415 80.6509C85.6742 82.3707 91.6578 88.9252 99.1338 95.8678C112.656 108.422 115.716 112.474 115.716 117.821C115.716 127.239 101.308 135.504 70.9789 143.48C53.625 148.046 45.1206 151.459 33.4147 158.56C28.3947 161.604 23.8315 163.639 23.2718 163.079C22.712 162.52 21.0687 157.772 19.6183 152.526C17.4188 144.573 16.9837 139.904 17.0005 124.425C17.0184 107.674 17.3397 104.815 20.2847 95.1421C27.1566 72.5768 40.3026 53.5027 57.6667 39.7901C60.7619 44.7216 66.2481 48 72.5 48ZM121.709 60.4734C121.709 54.2637 137.106 45.1043 163.201 35.7904C170.376 33.2299 176.689 31.1066 177.23 31.073C177.771 31.0383 180.737 32.7293 183.823 34.8288C220.241 59.6171 238.175 102.309 230.084 144.952C221.505 190.165 183.561 225.963 138.217 231.623C132.007 232.399 131.408 232.235 127.302 228.632C118.499 220.909 112.384 202.819 113.734 188.498C115.777 166.856 128.209 153.593 154.729 144.765C168.086 140.32 177.65 134.767 181.301 129.338C189.59 117.014 178.528 98.3577 156.355 87.2593C133.03 75.5873 121.709 66.8339 121.709 60.4734Z" fill="white"/>
</svg>
